<svg width="600" height="207" viewBox="0 0 600 207" fill="none" xmlns="http://www.w3.org/2000/svg">
<path fill-rule="evenodd" clip-rule="evenodd" d="M27.7643 111.251C35.1006 111.251 43.3958 114.341 47.7837 120.455H48.3319V112.831H68.2137V175.545C68.2137 196.359 51.0751 206.25 34.0719 206.25C17.5514 206.25 1.43933 196.84 1.30175 179.187H21.046C21.5265 187.084 27.2161 190.726 33.7989 190.726C40.3796 190.726 47.0979 186.673 47.0979 176.644V167.028H46.5497C42.0941 172.385 34.6201 175.269 27.7643 175.269C11.1061 175.269 0 159.334 0 143.054C0 126.775 11.1061 111.251 27.7643 111.251ZM224.931 112.763V148.276C224.931 153.565 229.044 157.824 234.186 157.824C239.327 157.824 243.442 153.565 243.442 148.276V112.763H264.555V147.932C264.555 165.929 252.215 176.919 234.186 176.919C216.499 176.919 203.816 166.341 203.816 147.932V112.763H224.931ZM567.022 111.113C585.397 111.113 600 124.852 600 144.085C600 145.877 599.832 147.393 599.7 148.379L599.657 148.687H555.575C556.329 156.723 561.333 161.257 567.435 161.257C570.838 161.257 574.304 159.881 577.294 156.589L577.718 156.106H598.08C592.801 170.256 579.913 176.849 567.022 176.849C550.502 176.849 534.047 165.929 534.047 144.085C534.047 124.852 548.65 111.113 567.022 111.113ZM111.61 110.564C130.738 110.564 146.367 124.097 146.367 143.604C146.367 163.113 130.738 176.644 111.61 176.644C92.5511 176.644 77.127 163.249 77.127 143.604C77.127 123.959 92.5511 110.564 111.61 110.564ZM415.448 74.8452V175.269H395.566V166.958H395.018C389.602 173.072 382.06 176.506 374.45 176.506C357.312 176.506 345.931 160.846 345.931 143.879C345.931 126.913 357.312 111.319 374.45 111.319C381.031 111.319 388.916 113.792 393.784 119.7H394.332V74.8452H415.448ZM184.827 73.0595C188.734 73.0595 192.779 73.5388 196.276 74.3638V91.468C194.699 91.0566 193.465 90.8488 192.094 90.8488C186.404 90.8488 181.468 93.1859 181.468 100.74V112.831H194.356V129.935H181.468V175.269H160.352V129.935H151.166V112.831H160.352V96.3459C160.352 80.7516 171.39 73.0595 184.827 73.0595ZM314.534 111.113C326.188 111.113 337.019 119.357 337.019 135.43V175.269H315.906V139.827C315.906 133.574 311.723 129.386 306.444 129.386C301.165 129.386 296.983 133.712 296.983 139.827V175.269H275.869V112.831H295.749V120.661H296.297C301.028 114.205 308.569 111.113 314.534 111.113ZM503.336 111.113C514.51 111.113 525.138 119.494 525.138 135.224V175.269H504.022V139.072C504.022 133.231 500.182 129.386 495.384 129.386C490.516 129.386 486.676 133.301 486.676 139.072V175.269H465.562V139.072C465.562 133.231 461.723 129.386 456.924 129.386C452.056 129.386 448.216 133.301 448.216 139.072V175.269H427.1V112.831H446.982V120.661H447.53C451.713 114.341 458.774 111.183 465.492 111.183C472.005 111.183 478.794 114.617 482.906 121.967H483.454C488.666 114.479 496.137 111.113 503.336 111.113ZM380.553 129.865C372.806 129.865 366.498 136.185 366.498 143.947C366.498 151.709 372.806 158.097 380.553 158.097C388.3 158.097 394.605 151.709 394.605 143.947C394.605 136.185 388.3 129.865 380.553 129.865ZM111.747 129.386C104.138 129.386 97.9677 135.704 97.9677 143.604C97.9677 151.504 104.138 157.824 111.747 157.824C119.357 157.824 125.527 151.504 125.527 143.604C125.527 135.704 119.357 129.386 111.747 129.386ZM34.0042 129.865C26.6001 129.865 20.5676 135.842 20.5676 143.26C20.5676 150.679 26.6001 156.723 34.0042 156.723C41.4083 156.723 47.373 150.679 47.373 143.26C47.373 135.842 41.4083 129.865 34.0042 129.865ZM567.16 126.637C561.608 126.637 556.877 130.209 555.3 137.354H578.679C577.375 130.347 572.714 126.637 567.16 126.637ZM589.635 91.7756L593.525 103.243L597.39 91.7756H599.998V105.338H598.247V97.3321C598.247 97.0564 598.254 96.5983 598.266 95.9578C598.279 95.3173 598.286 94.6302 598.286 93.8985L594.421 105.338H592.602L588.701 93.8985V94.3142C588.701 94.6471 588.712 95.1519 588.729 95.8327C588.748 96.5134 588.756 97.0118 588.756 97.3321V105.338H587.006V91.7756H589.635ZM585.365 91.7756V93.3916H580.804V105.338H578.952V93.3916H574.391V91.7756H585.365ZM299.999 59.4715C323.737 59.4715 344.447 72.3999 355.538 91.6038H244.462C255.553 72.3999 276.263 59.4715 299.999 59.4715ZM363.795 28.6584C367.91 24.5356 374.641 24.5356 378.754 28.6584C382.868 32.7791 382.868 39.5233 378.754 43.6461L362.811 59.62C358.698 63.7407 351.967 63.7407 347.852 59.62L347.49 59.2381C343.744 55.0908 343.864 48.6281 347.852 44.6323L363.795 28.6584ZM221.685 28.2949C225.824 24.5393 232.274 24.6605 236.262 28.6584L252.207 44.6323C256.319 48.753 256.319 55.4971 252.207 59.62C248.092 63.7407 241.361 63.7407 237.248 59.62L221.304 43.6461C217.191 39.5233 217.191 32.7791 221.304 28.6584L221.685 28.2949ZM299.866 0L300.323 0.00984175C305.931 0.25177 310.443 4.92311 310.443 10.5998V33.1884C310.443 39.0185 305.684 43.7882 299.866 43.7882C294.049 43.7882 289.289 39.0185 289.289 33.1884V10.5998C289.289 4.76968 294.049 0 299.866 0Z" fill="#02A95C"/>
</svg>
